<svg width="18" height="23" viewBox="0 0 18 23" fill="none" xmlns="http://www.w3.org/2000/svg">
<path d="M11 1.22461H3C2.46957 1.22461 1.96086 1.43532 1.58579 1.8104C1.21071 2.18547 1 2.69418 1 3.22461V19.2246C1 19.755 1.21071 20.2637 1.58579 20.6388C1.96086 21.0139 2.46957 21.2246 3 21.2246H15C15.5304 21.2246 16.0391 21.0139 16.4142 20.6388C16.7893 20.2637 17 19.755 17 19.2246V7.22461M11 1.22461L17 7.22461M11 1.22461V7.22461H17M13 12.2246H5M13 16.2246H5M7 8.22461H5" stroke="#101828" stroke-width="2" stroke-linecap="round" stroke-linejoin="round"/>
</svg>
