<svg width="20" height="19" viewBox="0 0 20 19" fill="none" xmlns="http://www.w3.org/2000/svg">
<path d="M15.8333 0.224609H4.16667C3.062 0.225909 2.00296 0.657331 1.22185 1.42424C0.440735 2.19116 0.00132321 3.23094 0 4.31552L0 10.861C0.00132321 11.9456 0.440735 12.9853 1.22185 13.7522C2.00296 14.5192 3.062 14.9506 4.16667 14.9519H9.16667V16.5882H5.83333C5.61232 16.5882 5.40036 16.6744 5.24408 16.8279C5.0878 16.9813 5 17.1894 5 17.4064C5 17.6234 5.0878 17.8315 5.24408 17.985C5.40036 18.1384 5.61232 18.2246 5.83333 18.2246H14.1667C14.3877 18.2246 14.5996 18.1384 14.7559 17.985C14.9122 17.8315 15 17.6234 15 17.4064C15 17.1894 14.9122 16.9813 14.7559 16.8279C14.5996 16.6744 14.3877 16.5882 14.1667 16.5882H10.8333V14.9519H15.8333C16.938 14.9506 17.997 14.5192 18.7782 13.7522C19.5593 12.9853 19.9987 11.9456 20 10.861V4.31552C19.9987 3.23094 19.5593 2.19116 18.7782 1.42424C17.997 0.657331 16.938 0.225909 15.8333 0.224609ZM18.3333 10.861C18.3333 11.512 18.0699 12.1363 17.6011 12.5966C17.1323 13.0569 16.4964 13.3155 15.8333 13.3155H4.16667C3.50363 13.3155 2.86774 13.0569 2.3989 12.5966C1.93006 12.1363 1.66667 11.512 1.66667 10.861V4.31552C1.66667 3.66453 1.93006 3.04021 2.3989 2.57989C2.86774 2.11958 3.50363 1.86097 4.16667 1.86097H15.8333C16.4964 1.86097 17.1323 2.11958 17.6011 2.57989C18.0699 3.04021 18.3333 3.66453 18.3333 4.31552V10.861ZM16.6667 7.58825C16.6667 7.80524 16.5789 8.01335 16.4226 8.16679C16.2663 8.32023 16.0543 8.40643 15.8333 8.40643H13.3625L11.9458 10.4969C11.8695 10.6093 11.766 10.7013 11.6446 10.7648C11.5231 10.8284 11.3876 10.8614 11.25 10.861C11.2325 10.861 11.215 10.861 11.1983 10.861C11.0525 10.8522 10.9117 10.8059 10.7898 10.7267C10.668 10.6476 10.5695 10.5384 10.5042 10.4102L8.64667 6.76025L7.77667 8.04234C7.70054 8.15436 7.59743 8.2462 7.47649 8.30971C7.35554 8.37323 7.22049 8.40645 7.08333 8.40643H4.16667C3.94565 8.40643 3.73369 8.32023 3.57741 8.16679C3.42113 8.01335 3.33333 7.80524 3.33333 7.58825C3.33333 7.37125 3.42113 7.16314 3.57741 7.0097C3.73369 6.85627 3.94565 6.77006 4.16667 6.77006H6.6375L8.05417 4.67961C8.13436 4.55898 8.24596 4.46161 8.3774 4.39759C8.50883 4.33357 8.65532 4.30523 8.80167 4.31552C8.94747 4.32434 9.08834 4.37063 9.21018 4.44975C9.33201 4.52887 9.43052 4.63805 9.49583 4.76634L11.3533 8.41461L12.2233 7.13252C12.2996 7.0208 12.4028 6.92928 12.5238 6.86606C12.6447 6.80283 12.7797 6.76986 12.9167 6.77006H15.8333C16.0543 6.77006 16.2663 6.85627 16.4226 7.0097C16.5789 7.16314 16.6667 7.37125 16.6667 7.58825Z" fill="#101828"/>
</svg>
