<svg width="20" height="21" viewBox="0 0 20 21" fill="none" xmlns="http://www.w3.org/2000/svg">
<path fill-rule="evenodd" clip-rule="evenodd" d="M18.5774 7.95119C18.7337 7.79491 18.9457 7.70711 19.1667 7.70711C19.3877 7.70711 19.5996 7.79491 19.7559 7.95119C19.9122 8.10747 20 8.31943 20 8.54044V13.8438C20.0013 14.3911 19.8941 14.9333 19.6846 15.439C19.475 15.9446 19.1673 16.4037 18.7792 16.7896L16.5658 19.0046C16.1797 19.3927 15.7205 19.7003 15.2147 19.9097C14.7089 20.1192 14.1666 20.2262 13.6192 20.2246H4.16667C3.062 20.2233 2.00297 19.7839 1.22185 19.0028C0.440735 18.2216 0.00132321 17.1626 0 16.0579V4.39128C0.00132321 3.28661 0.440735 2.22757 1.22185 1.44646C2.00297 0.665344 3.062 0.225933 4.16667 0.224609H11.7017C11.9227 0.224609 12.1346 0.312407 12.2909 0.468687C12.4472 0.624967 12.535 0.836929 12.535 1.05794C12.535 1.27896 12.4472 1.49092 12.2909 1.6472C12.1346 1.80348 11.9227 1.89128 11.7017 1.89128H4.16667C3.50363 1.89128 2.86774 2.15467 2.3989 2.62351C1.93006 3.09235 1.66667 3.72824 1.66667 4.39128V16.0579C1.66667 16.721 1.93006 17.3569 2.3989 17.8257C2.86774 18.2946 3.50363 18.5579 4.16667 18.5579H12.5V15.2246C12.5 14.5616 12.7634 13.9257 13.2322 13.4568C13.7011 12.988 14.337 12.7246 15 12.7246H18.3333V8.54044C18.3333 8.31943 18.4211 8.10747 18.5774 7.95119ZM14.1667 18.4929C14.6289 18.3918 15.0525 18.1604 15.3875 17.8263L17.6042 15.6113C17.9367 15.2754 18.1677 14.8525 18.2708 14.3913H15C14.779 14.3913 14.567 14.4791 14.4107 14.6354C14.2545 14.7916 14.1667 15.0036 14.1667 15.2246V18.4929ZM5.38668 11.1597L15.5467 0.99967C16.042 0.526248 16.7007 0.262044 17.3859 0.262044C18.071 0.262044 18.7297 0.526248 19.225 0.99967C19.712 1.48786 19.9855 2.14927 19.9855 2.83884C19.9855 3.5284 19.712 4.18981 19.225 4.678L9.06502 14.838C8.67906 15.2261 8.21997 15.5337 7.71431 15.7431C7.20866 15.9525 6.66649 16.0596 6.11918 16.058H5.00002C4.779 16.058 4.56704 15.9702 4.41076 15.8139C4.25448 15.6576 4.16668 15.4457 4.16668 15.2247V14.1055C4.16514 13.5582 4.27217 13.016 4.48159 12.5104C4.691 12.0047 4.99864 11.5456 5.38668 11.1597ZM7.88668 13.6597L18.0467 3.49967C18.2216 3.32424 18.3199 3.08659 18.3199 2.83884C18.3199 2.59108 18.2216 2.35343 18.0467 2.178C17.8687 2.00797 17.632 1.91308 17.3859 1.91308C17.1397 1.91308 16.903 2.00797 16.725 2.178L6.56502 12.338C6.09799 12.8079 5.83509 13.443 5.83335 14.1055V14.3913H6.11918C6.78169 14.3896 7.41679 14.1267 7.88668 13.6597Z" fill="#101828"/>
</svg>
